# xmcd CD database file
#
# Track frame offsets:
#	150
#	35655
#	72718
#	94995
#	130700
#	164465
#
# Disc length: 2619 seconds
#
# Revision: 0
# Processed by: cddbd v1.5PL3 Copyright (c) Steve Scherf et al.
# Submitted via: CDex 1.60beta1
#
DISCID=550a3906
DTITLE=Jay Hoggard - Overview
DYEAR=1989
DGENRE=Jazz
TTITLE0=Put on a Happy Face
TTITLE1=Overview
TTITLE2=Aguacate
TTITLE3=Blues Bags
TTITLE4=Ruby, My Dear
TTITLE5=Convergence
EXTD=YEAR: 1989
EXTT0=
EXTT1=
EXTT2=
EXTT3=
EXTT4=
EXTT5=
PLAYORDER=
